<?xml version="1.0" ?><svg xmlns="http://www.w3.org/2000/svg" xmlns:xlink="http://www.w3.org/1999/xlink" version="1.1" viewBox="0 0 512 512" style="enable-background:new 0 0 512 512;" xml:space="preserve"><g id="_x31_1_x2C__Sheep_x2C__animals_x2C__zoo_x2C__farm_x2C__animal_kingdom_x2C__nature"><g><g><g><path d="M495.123,216.379c-12.594-19.453-13.522-22.505-12.364-46.654c0.677-14.105,1.376-28.69-5.895-41.254      c-7.384-12.756-20.479-19.463-33.141-25.95c-21.183-10.848-23.408-13.088-34.238-34.238      c-6.486-12.666-13.193-25.763-25.958-33.148c-13.066-7.557-28.283-6.515-43.426-5.783c-5.517,0.259-9.779,4.94-9.521,10.458      c0.516,10.953,12.513,9.385,12.613,9.417c11.746-0.569,22.842-1.105,30.317,3.22c14.273,8.258,19.409,35.308,35.07,50.978      c15.697,15.686,42.699,20.775,50.973,35.066c8.061,13.931-0.827,40.095,4.934,61.63C470.118,221.208,491,239.032,491,256      c0,16.965-20.88,34.781-26.51,55.875c-5.776,21.588,3.151,47.66-4.936,61.637c-8.258,14.273-35.308,19.409-50.978,35.07      c-15.686,15.697-20.775,42.699-35.066,50.973c-13.953,8.074-40.083-0.833-61.63,4.934C290.792,470.118,272.968,491,256,491      c-16.965,0-34.781-20.88-55.875-26.51c-21.601-5.777-47.664,3.15-61.637-4.936c-14.273-8.258-19.409-35.308-35.07-50.978      c-15.697-15.686-42.699-20.775-50.973-35.066c-8.061-13.931,0.827-40.095-4.934-61.63C41.882,290.792,21,272.968,21,256      c0-16.965,20.88-34.781,26.51-55.875c5.776-21.588-3.151-47.66,4.936-61.637c8.258-14.273,35.308-19.409,50.978-35.07      c15.686-15.697,20.775-42.699,35.066-50.973c13.955-8.075,40.081,0.833,61.63-4.934C221.208,41.882,239.032,21,256,21      c12.813,0,26.242,11.971,40.834,20.12c4.82,2.693,10.913,0.967,13.606-3.854c2.693-4.822,0.967-10.914-3.854-13.606      C292.009,15.516,275.854,1,256,1c-24.756,0-43.827,22.593-61.045,27.189c-18.086,4.843-45.55-5.169-66.484,6.946      c-21.24,12.295-26.132,41.073-39.189,54.141c-13.059,13.049-41.861,17.961-54.146,39.195      c-12.192,21.07-2.043,48.171-6.947,66.489C23.573,212.252,1,231.206,1,256c0,24.756,22.593,43.827,27.189,61.045      c4.838,18.074-5.159,45.566,6.946,66.484c12.295,21.24,41.073,26.132,54.141,39.189c13.049,13.059,17.961,41.861,39.195,54.146      c21.01,12.156,48.26,2.07,66.489,6.947C212.252,488.427,231.206,511,256,511c24.756,0,43.827-22.593,61.045-27.189      c18.091-4.841,45.542,5.175,66.484-6.946c21.24-12.295,26.132-41.073,39.189-54.141c13.059-13.049,41.861-17.961,54.146-39.195      c12.192-21.07,2.043-48.171,6.947-66.489C488.427,299.748,511,280.794,511,256C511,240.904,502.565,227.875,495.123,216.379z"/><path d="M256,99.241c-19.523-13.509-46.238-10.147-61.623,8.222c-6.365-2.575-13.241-3.682-20.295-3.22      c-23.009,1.496-43.028,20.839-43.068,45.984c-32.321,12.725-56.901,43.274-59.922,80.999      c-1.271,15.762,11.005,29.366,26.777,29.74c12.988,0.316,25.488-1.989,36.985-6.472c3.971,15.496,10.962,30.275,20.804,43.706      c0.1,0.07,6.592,11.542,15.883,4.701c9.28-6.836,0.267-16.443,0.235-16.543C148.13,254.089,151.305,222.947,151,220.96      c0-4.176,0.319-8.323,0.917-12.428c13.071,8.618,28.97,9.746,42.46,4.291c15.301,18.272,41.994,21.805,61.623,8.222      c7.669,5.307,16.864,8.241,26.286,8.241c13.852,0,26.681-6.126,35.337-16.463c13.459,5.444,29.35,4.352,42.46-4.291      c1.188,8.154,0.863,13.576,0.917,15.508c0,23.889-8.362,46.749-23.123,65.532c-12.392,15.773-19.467,35.079-19.467,55.378      c0,27.242-22.173,50.812-52.41,55.149v-21.4c3.836-1.77,7.163-4.553,9.569-8.143l16.223-24.203      C302.084,330.998,290.601,311,272.223,311h-32.445c-18.38,0-29.86,20-19.569,35.354l16.223,24.203      c2.406,3.591,5.733,6.374,9.569,8.143v21.4c-29.099-4.175-52.41-26.866-52.41-55.149c0-5.313-0.494-10.665-1.468-15.907      c-1.01-5.431-6.235-9.009-11.659-8.005c-5.43,1.01-9.014,6.229-8.005,11.659c0.751,4.04,1.132,8.163,1.132,12.253      c0,41.448,36.39,75.87,82.41,75.87c46.018,0,82.41-34.412,82.41-75.87c0-15.783,5.557-30.757,15.192-43.021      c11.12-14.15,19.122-30.175,23.542-47.43c12.214,4.759,24.85,6.779,36.972,6.468c15.792-0.374,28.063-13.981,26.791-29.735      c-3.021-37.721-27.592-68.275-59.922-81.004c-0.039-25.127-20.04-44.487-43.068-45.984c-7.052-0.465-13.929,0.644-20.295,3.22      C302.323,89.193,275.632,85.657,256,99.241z M236.821,335.219c-0.204-0.306-0.827-1.233-0.145-2.513      c0.274-0.513,1.124-1.706,3.101-1.706h32.445c1.977,0,2.826,1.193,3.101,1.706c0.683,1.279,0.06,2.207-0.145,2.513      l-16.223,24.203c-1.312,1.956-4.602,1.953-5.912,0L236.821,335.219z M98.357,240.973c-4.312-0.103-7.681-3.794-7.33-8.144      c2.095-26.152,17.442-48.77,40.041-60.634c0.29,6.078,1.653,11.929,4.537,17.833C132.547,200.061,131,210.445,131,220.96      c0.029,1.929-0.138,6.461,0.429,13.281C121.127,238.939,109.83,241.262,98.357,240.973z M420.973,232.834      c0.346,4.28-2.948,8.035-7.344,8.139c-11.456,0.295-22.752-2.03-33.059-6.726c0.565-6.752,0.4-11.28,0.43-13.287      c0-10.515-1.548-20.899-4.605-30.932c2.863-5.86,4.245-11.722,4.537-17.833C403.431,184.005,418.869,206.568,420.973,232.834z       M305.498,125.122c2.765,5.324,9.59,7.044,14.55,3.624c4.877-3.362,10.608-4.927,16.571-4.546      c13.563,0.882,24.867,12.546,24.365,26.992c-0.554,15.956,0.546,18.081-0.391,23.435c-2.046,11.663-12.128,20.688-23.975,21.459      c-5.959,0.386-11.693-1.185-16.572-4.547c-4.962-3.417-11.784-1.7-14.549,3.625c-8.288,15.958-29.834,19.041-42.225,5.909      c-3.939-4.175-10.595-4.189-14.547,0c-12.39,13.131-33.936,10.049-42.225-5.909c-2.77-5.336-9.598-7.035-14.549-3.625      c-4.878,3.361-10.612,4.93-16.572,4.547c-13.557-0.882-24.867-12.538-24.365-26.992c0.554-15.959-0.546-18.08,0.391-23.435      c2.046-11.663,12.128-20.688,23.975-21.459c5.959-0.38,11.694,1.184,16.571,4.546c4.963,3.418,11.784,1.701,14.55-3.624      c8.288-15.958,29.834-19.041,42.225-5.909c3.939,4.175,10.595,4.189,14.547,0C275.664,106.082,297.209,109.164,305.498,125.122z      "/></g><circle cx="301" cy="271.001" r="10"/><circle cx="211" cy="271.001" r="10"/></g></g></g><g id="Layer_1"/></svg>