<?xml version="1.0" ?><svg xmlns="http://www.w3.org/2000/svg" xmlns:xlink="http://www.w3.org/1999/xlink" version="1.1" viewBox="0 0 512 512" style="enable-background:new 0 0 512 512;" xml:space="preserve"><g id="_x32_6_x2C__Goat__x2C__animal_face_x2C__fauna_x2C__animal_head_x2C__wildlife_x2C__pets"><g><g><g><path d="M206,251.324c0-22.056-15.701-40-35-40s-35,17.944-35,40s15.701,40,35,40S206,273.38,206,251.324z M156,251.324      c0-10.841,6.869-20,15-20s15,9.159,15,20c0,10.841-6.869,20-15,20S156,262.165,156,251.324z"/><path d="M341,291.324c19.299,0,35-17.944,35-40s-15.701-40-35-40s-35,17.944-35,40S321.701,291.324,341,291.324z M341,231.324      c8.131,0,15,9.159,15,20c0,10.841-6.869,20-15,20s-15-9.159-15-20C326,240.483,332.869,231.324,341,231.324z"/><path d="M478.955,141.339c-15.912,0.438-31.559,4.247-45.813,11.086c-3.506-5.889-7.478-11.483-11.871-16.73      c0.695-10.892,2.819-21.587,6.354-31.845c18.349-53.264,67.264-73.938,76.883-77.542c4.011-1.502,6.619-5.392,6.487-9.672      c-0.132-4.281-2.975-8.003-7.07-9.255c-6.667-2.04-66.739-18.944-121.862,15.029c-4.701,2.897-6.164,9.058-3.266,13.76      c2.897,4.701,9.057,6.164,13.76,3.266c27.517-16.958,56.515-19.233,77.219-17.784c-34.864,22.19-59.039,55.441-66.477,96.437      c-13.74-11.036-29.902-19.344-47.772-23.983c-3.093-0.804-6.2-1.559-9.314-2.288c4.895-10.445,11.04-19.991,18.348-28.48      c3.603-4.186,3.131-10.499-1.056-14.103c-4.186-3.603-10.501-3.13-14.103,1.056c-9.504,11.041-17.295,23.587-23.241,37.374      c-45.312-8.16-93.283-8.654-140.449-0.275C155.245,16.962,78.151-14.107,8.068,7.384c-4.094,1.255-6.934,4.977-7.063,9.256      c-0.131,4.279,2.478,8.166,6.486,9.669c9.619,3.604,58.538,24.286,76.887,77.552c3.49,10.101,5.607,20.657,6.33,31.43      c-4.445,5.311-8.476,11.007-12.039,17.045c-14.196-6.781-29.777-10.558-45.619-10.996c-18.136-0.471-32.53,14.364-32.036,32.033      c1.274,45.973,30.099,85.878,71.802,102.086c6.852,16.228,16.492,31.483,28.698,45.391      c14.556,16.592,23.688,37.285,23.688,59.886c0,15.435,2.672,30.549,7.941,44.922c1.904,5.196,7.658,7.845,12.831,5.946      c5.186-1.9,7.848-7.646,5.946-12.831c-4.458-12.161-6.719-24.958-6.719-38.037c0-27.531-10.926-52.871-28.654-73.076      C94.193,282.186,80.9,250.822,80.9,217.344c0-49.164,33.211-91.922,80.465-104.19c61.237-15.915,127.398-15.74,189.132,0.31      c81.603,21.186,80.566,104.108,80.603,104.208c-0.078,33.492-13.47,64.718-35.651,89.992      c-4.848,5.532-9.148,11.396-12.783,17.43c-2.851,4.731-1.326,10.877,3.404,13.727c4.733,2.851,10.878,1.326,13.727-3.405      c3.026-5.022,6.625-9.925,10.689-14.564c12.207-13.909,21.848-29.165,28.7-45.392c42.094-16.361,70.538-56.513,71.801-102.084      C511.483,155.584,496.961,140.872,478.955,141.339z M32.493,161.331c12.982,0.359,25.745,3.435,37.376,8.961      c-3.157,7.944-5.484,16.147-6.976,24.544c-12.235-4.021-25.759-4.727-38.979-1.402c-1.726-6.719-2.713-13.619-2.908-20.619      C20.826,166.38,26.08,161.145,32.493,161.331z M31.008,212.322c9.881-2.006,20.338-1.011,29.924,3.157      c-0.169,11.401,1.021,22.555,3.413,33.429C50.472,240.15,38.674,227.457,31.008,212.322z M156.336,93.796      c-17.637,4.58-33.83,12.81-47.692,23.936c-7.026-38.191-29.308-72.483-66.469-96.109      c57.293-4.074,102.386,25.123,123.459,69.895C162.524,92.242,159.422,92.994,156.336,93.796z M479.511,161.331      c6.484-0.17,11.662,5.107,11.483,11.486c-0.194,6.999-1.181,13.897-2.908,20.617c-12.856-3.233-26.395-2.748-39.046,1.425      c-1.536-8.459-3.909-16.661-7.044-24.503C453.671,164.789,466.479,161.69,479.511,161.331z M447.662,248.903      c2.513-11.423,3.596-22.885,3.413-33.427c9.511-4.131,19.953-5.177,29.917-3.154C473.356,227.4,461.584,240.113,447.662,248.903      z"/><path d="M379.167,357.636c-5.476-0.8-10.536,3.005-11.324,8.471c-0.692,4.801-1.043,9.722-1.043,14.627      c0,57.683-44.391,105.184-100.8,110.152v-52.2c5.626-2.042,10.521-5.784,13.912-10.844l22.477-33.535      c12.447-18.57-1.336-42.982-23.911-42.982h-44.955c-22.549,0-36.371,24.393-23.911,42.982l22.477,33.536      c3.391,5.059,8.286,8.802,13.912,10.844v52.206c-30.7-2.674-57.798-17.888-75.967-40.339c-3.475-4.293-9.771-4.956-14.064-1.482      c-4.293,3.475-4.957,9.771-1.482,14.064c24.036,29.695,60.677,48.189,101.294,48.189h0.439      c72.002,0,130.58-58.582,130.58-130.59c0-3.954,0.282-7.915,0.838-11.773C388.426,363.494,384.633,358.425,379.167,357.636z       M226.225,383.172c-2.117-3.159-1.159-6.02-0.399-7.443c1.472-2.758,4.35-4.404,7.697-4.404h44.955      c3.348,0,6.226,1.646,7.697,4.404c0.76,1.424,1.718,4.284-0.399,7.443l-22.477,33.534c-2.262,3.375-5.857,3.739-7.299,3.739      s-5.037-0.364-7.299-3.738L226.225,383.172z"/></g></g></g></g><g id="Layer_1"/></svg>