<?xml version="1.0" ?><svg xmlns="http://www.w3.org/2000/svg" xmlns:xlink="http://www.w3.org/1999/xlink" version="1.1" viewBox="0 0 512 512" style="enable-background:new 0 0 512 512;" xml:space="preserve"><g id="_x30_4_x2C__Cow_x2C__animal_x2C__farm_x2C__milk_x2C__animals_x2C__zoology"><g><g><g><path d="M371.697,205.518c-0.403-0.1-14.629-8.064-30.458-1.058c-9.565,4.234-16.594,12.607-19.791,23.578l-0.031,0.107      c-1.908,6.408,2.9,12.858,9.588,12.858c4.309,0,8.286-2.807,9.58-7.147l0.065-0.224c3.072-10.552,12.187-14.911,22.386-10.087      l0.22,0.104c5.005,2.333,10.955,0.162,13.286-4.845C378.872,213.797,376.704,207.849,371.697,205.518z"/><path d="M190.553,228.038c-6.539-22.437-28.865-32.641-50.141-22.571l-0.108,0.051c-5.007,2.331-7.176,8.279-4.845,13.286      c2.331,5.007,8.281,7.176,13.286,4.845l0.22-0.104c10.215-4.83,19.318-0.45,22.386,10.087l0.065,0.224      c1.579,5.298,7.149,8.303,12.439,6.728c5.292-1.577,8.305-7.146,6.729-12.439L190.553,228.038z"/><path d="M470.518,124.442c-10.105,0.164-20.073,0.94-29.826,2.279c18.283-41.408,10.186-89.147-10.347-121.124      c-2.313-3.604-6.666-5.333-10.82-4.304c-4.155,1.03-7.195,4.591-7.559,8.857c-0.74,8.69-6.428,53.418-45.764,80.624      c-3.493,2.416-7.17,4.621-10.969,6.604C325.504,82.183,287.78,81.69,256,101.115c-31.177-19.057-68.861-19.26-99.233-3.736      c-3.799-1.982-7.476-4.188-10.968-6.603c-39.337-27.207-45.024-71.935-45.765-80.625c-0.363-4.266-3.403-7.828-7.559-8.857      c-4.16-1.029-8.507,0.701-10.82,4.304C60.925,37.883,53.154,85.574,71.309,126.721c-9.753-1.339-19.72-2.116-29.824-2.279      c-19.775-0.328-41.474,9.985-40.594,28.495c1.183,25.362,17.88,48.83,47.012,66.077c13.051,7.733,27.961,13.88,44.407,18.32      c1.989,33.81,12.862,66.331,31.757,94.671c2.491,4.879,24.953,29.809,24.953,72.015C149.02,463.009,197.011,511,256,511      s106.98-47.991,106.98-106.98c0-23.594,7.22-46.837,21.349-66.616c21.151-29.612,33.271-64,35.37-100.072      c42.971-11.604,89.345-40.1,91.409-84.386C511.988,134.496,490.44,124.095,470.518,124.442z M425.295,42.238      c13.266,41.14,2.538,79.491-22.582,105.845c-9.315-18.586-18.581-29.721-28.891-38.38      C398.792,93.767,415.94,70.115,425.295,42.238z M86.706,42.238c9.33,27.801,26.438,51.485,51.473,67.465      c-10.312,8.661-19.577,19.795-28.891,38.38C84.138,121.698,73.454,83.339,86.706,42.238z M21.958,150.214      c2.894-2.985,9.984-5.92,19.2-5.775c14.827,0.241,29.313,1.881,43.135,4.845c4.857,6.672,10.411,12.888,16.647,18.611      c-5.37,15.549-8.376,31.893-8.878,48.562c-12.526-3.792-23.915-8.695-33.968-14.651      C23.013,181.037,18.388,153.897,21.958,150.214z M258.956,449.422c-0.67,0.999-1.772,1.458-2.956,1.458      c-1.184,0-2.286-0.459-2.956-1.458l-16.223-24.203c-0.204-0.306-0.827-1.233-0.145-2.513c0.274-0.513,1.124-1.706,3.101-1.706      h32.445c1.977,0,2.826,1.193,3.101,1.706c0.683,1.279,0.06,2.207-0.145,2.513L258.956,449.422z M266,490.422V468.7      c3.836-1.769,7.163-4.553,9.569-8.143l16.223-24.203C302.084,420.999,290.602,401,272.223,401h-32.445      c-18.381,0-29.86,20-19.569,35.354l16.223,24.203c2.406,3.591,5.733,6.374,9.569,8.143v21.722      c-43.268-4.976-76.98-41.823-76.98-86.403c0-3.884-0.187-7.747-0.517-11.587c54.686-29.238,119.935-29.651,174.992-0.075      c-0.331,3.861-0.515,7.749-0.515,11.663C342.981,448.599,309.268,485.446,266,490.422z M368.054,325.779      c-9.988,13.983-17.09,29.488-21.132,45.845c-11.965-5.928-24.465-10.674-37.337-14.17      c-9.145-26.523-11.121-30.808-13.685-40.693c-1.387-5.347-6.846-8.561-12.189-7.17c-5.346,1.386-8.557,6.844-7.17,12.189      c2.733,10.541,5.266,16.511,10.167,30.847c-20.737-3.139-41.73-3.062-62.542,0.25l7.123-20.353      c18.305-52.314,10.353-109.797-21.198-155.171c-3.152-4.534-9.384-5.654-13.919-2.501c-4.534,3.153-5.654,9.385-2.501,13.919      c27.796,39.976,34.802,91.246,18.741,137.147l-11.191,31.976c-12.461,3.477-24.561,8.102-36.149,13.823      c-7.153-28.884-21.282-45.453-24.364-50.804c-32.673-49.009-28.318-96.453-28.735-99.444c0-28.22,8.157-55.542,23.591-79.011      c0.57-0.867,1.169-1.708,1.768-2.548c11.299,5.676,21.817,12.697,31.322,20.974c4.157,3.619,10.475,3.199,14.109-0.975      c3.626-4.165,3.19-10.481-0.975-14.108c-9.322-8.117-19.5-15.165-30.361-21.086c26.91-22.299,67.525-25.548,98.807-3.467      c3.457,2.441,8.076,2.441,11.533,0c32.396-22.865,74.283-18.407,100.914,5.289c-56.677,29.857-92.101,89.192-91.671,153.233      c0.036,5.385,4.365,9.933,10.067,9.933c5.522-0.037,9.97-4.544,9.933-10.067c-0.396-58.85,32.802-111.986,85.186-137.526      c15.559,23.447,23.833,50.969,23.833,79.36C399.574,224.552,404.341,274.977,368.054,325.779z M419.938,216.457      c-0.502-16.669-3.508-33.013-8.878-48.562c6.237-5.723,11.79-11.939,16.647-18.611c13.325-2.858,64.07-10.536,63.424,2.721      C489.604,184.754,451.667,206.853,419.938,216.457z"/></g></g></g></g><g id="Layer_1"/></svg>