<?xml version="1.0" ?><svg style="enable-background:new 0 0 32 32;" version="1.1" viewBox="0 0 32 32" xml:space="preserve" xmlns="http://www.w3.org/2000/svg" xmlns:xlink="http://www.w3.org/1999/xlink"><g id="Guides"/><g id="_x32_0"/><g id="_x31_9"/><g id="_x31_8"/><g id="_x31_7"/><g id="_x31_6"/><g id="_x31_5"/><g id="_x31_4"/><g id="_x31_3"/><g id="_x31_2"/><g id="_x31_1"/><g id="_x31_0"/><g id="_x30_9"/><g id="_x30_8"/><g id="_x30_7"/><g id="_x30_6"/><g id="_x30_5"/><g id="_x30_4"/><g id="_x30_3"/><g id="_x30_2"/><g id="_x30_1"><path d="M20,6h-1V4h1c0.5527344,0,1-0.4472656,1-1s-0.4472656-1-1-1h-2h-4h-2c-0.5527344,0-1,0.4472656-1,1s0.4472656,1,1,1h1v2h-1   c-0.5527344,0-1,0.4472656-1,1v15c0,0.5527344,0.4472656,1,1,1h1v2c0,0.5527344,0.4472656,1,1,1h1.0109863L15,28.9960938   C14.9980469,29.5488281,15.4443359,29.9980469,15.9960938,30C15.9980469,30,15.9990234,30,16,30   c0.5507813,0,0.9980469-0.4453125,1-0.9960938L17.0109863,26H18c0.5527344,0,1-0.4472656,1-1v-2h1c0.5527344,0,1-0.4472656,1-1V7   C21,6.4472656,20.5527344,6,20,6z M15,4h2v2h-2V4z M17,24h-0.9814453c-0.0019531,0-0.0029297,0-0.0039063,0H15v-1h2V24z M18,21h-4   h-1V8h1h4h1v1h-1c-0.5527344,0-1,0.4472656-1,1s0.4472656,1,1,1h1v3h-1c-0.5527344,0-1,0.4472656-1,1s0.4472656,1,1,1h1v2h-1   c-0.5527344,0-1,0.4472656-1,1s0.4472656,1,1,1h1v1H18z"/></g></svg>